<svg width="41" height="30" viewBox="0 0 41 30" fill="none" xmlns="http://www.w3.org/2000/svg">
<path opacity="0.8" d="M12.2396 28.1601C9.6529 28.1601 7.4929 27.8401 5.75957 27.2001C4.02624 26.5867 2.71957 25.7201 1.83957 24.6001C0.986237 23.5067 0.55957 22.2401 0.55957 20.8001C0.55957 20.1334 0.706237 19.4801 0.99957 18.8401C1.2929 18.2001 1.74624 17.6667 2.35957 17.2401C2.70624 17.0001 3.07957 16.8001 3.47957 16.6401C3.87957 16.4801 4.39957 16.3601 5.03957 16.2801C5.70624 16.2001 6.5729 16.1601 7.63957 16.1601H37.5196L37.6396 19.0401H8.07957C7.2529 19.0401 6.6129 19.0534 6.15957 19.0801C5.7329 19.1067 5.4129 19.1601 5.19957 19.2401C4.98624 19.3201 4.7729 19.4401 4.55957 19.6001C4.15957 19.9201 3.95957 20.3734 3.95957 20.9601C3.95957 22.2667 4.66624 23.3067 6.07957 24.0801C7.4929 24.8534 9.62624 25.2401 12.4796 25.2401H13.1596C15.8529 25.2401 18.1596 24.9201 20.0796 24.2801C22.0262 23.6667 23.6262 22.8134 24.8796 21.7201C26.1596 20.6267 27.1196 19.3867 27.7596 18.0001L27.9196 17.2401C28.1596 16.5734 28.3329 15.9067 28.4396 15.2401C28.5462 14.5467 28.5996 13.8534 28.5996 13.1601C28.5996 11.6134 28.3329 10.1467 27.7996 8.76006C27.2662 7.37339 26.4396 6.21339 25.3196 5.28006C24.2262 4.32006 22.8129 3.70673 21.0796 3.44006C20.7329 3.38673 20.3996 3.36006 20.0796 3.36006C19.7862 3.33339 19.4662 3.32006 19.1196 3.32006C18.2929 3.32006 17.5329 3.46673 16.8396 3.76006C16.1462 4.05339 15.5862 4.49339 15.1596 5.08006C14.7596 5.66673 14.5596 6.41339 14.5596 7.32006C14.5596 8.30673 14.8529 9.14673 15.4396 9.84006C16.0529 10.5067 16.9062 10.8401 17.9996 10.8401C19.0129 10.8401 19.8129 10.5334 20.3996 9.92006C21.0129 9.28006 21.3196 8.37339 21.3196 7.20006C21.3196 6.32006 21.1729 5.53339 20.8796 4.84006C20.6129 4.12006 20.1329 3.44006 19.4396 2.80006L21.7196 2.12006C22.1996 2.52006 22.6396 2.98673 23.0396 3.52006C23.4662 4.05339 23.7996 4.65339 24.0396 5.32006C24.3062 5.96006 24.4396 6.64006 24.4396 7.36006C24.4396 8.29339 24.2929 9.14673 23.9996 9.92006C23.7329 10.6667 23.3196 11.3201 22.7596 11.8801C22.1996 12.4134 21.5062 12.8267 20.6796 13.1201C19.8796 13.4134 18.9596 13.5601 17.9196 13.5601C16.7196 13.5601 15.6262 13.3334 14.6396 12.8801C13.6529 12.4267 12.8662 11.7467 12.2796 10.8401C11.6929 9.93339 11.3996 8.81339 11.3996 7.48006C11.3996 5.82673 11.7862 4.49339 12.5596 3.48006C13.3329 2.46673 14.3329 1.73339 15.5596 1.28006C16.8129 0.800059 18.1329 0.560059 19.5196 0.560059C21.5729 0.560059 23.3729 0.906726 24.9196 1.60006C26.4929 2.29339 27.7996 3.24006 28.8396 4.44006C29.9062 5.64006 30.7062 6.98673 31.2396 8.48006C31.7729 9.97339 32.0396 11.5201 32.0396 13.1201C32.0396 13.8401 31.9996 14.5467 31.9196 15.2401C31.8396 15.9067 31.7196 16.5601 31.5596 17.2001L31.3196 18.0801C30.5729 20.2667 29.3196 22.1067 27.5596 23.6001C25.8262 25.0934 23.7196 26.2267 21.2396 27.0001C18.7862 27.7734 16.0662 28.1601 13.0796 28.1601H12.2396ZM37.2796 29.3601V1.04006H40.7196V29.3601H37.2796Z" fill="#FF4A6C"/>
</svg>
