<svg width="19" height="19" viewBox="0 0 19 19" fill="none" xmlns="http://www.w3.org/2000/svg">
<path d="M7.54059 3.1001H3.84059C3.64433 3.1001 3.4561 3.17806 3.31733 3.31684C3.17855 3.45562 3.10059 3.64384 3.10059 3.8401V7.5401C3.10059 7.73636 3.17855 7.92458 3.31733 8.06336C3.4561 8.20213 3.64433 8.2801 3.84059 8.2801H7.54059C7.73685 8.2801 7.92507 8.20213 8.06384 8.06336C8.20262 7.92458 8.28059 7.73636 8.28059 7.5401V3.8401C8.28059 3.64384 8.20262 3.45562 8.06384 3.31684C7.92507 3.17806 7.73685 3.1001 7.54059 3.1001V3.1001Z" stroke="#FF4A6C" stroke-width="1.11" stroke-linejoin="round"/>
<path d="M7.54059 11.2402H3.84059C3.64433 11.2402 3.4561 11.3182 3.31733 11.457C3.17855 11.5958 3.10059 11.784 3.10059 11.9802V15.6802C3.10059 15.8765 3.17855 16.0647 3.31733 16.2035C3.4561 16.3423 3.64433 16.4202 3.84059 16.4202H7.54059C7.73685 16.4202 7.92507 16.3423 8.06384 16.2035C8.20262 16.0647 8.28059 15.8765 8.28059 15.6802V11.9802C8.28059 11.784 8.20262 11.5958 8.06384 11.457C7.92507 11.3182 7.73685 11.2402 7.54059 11.2402Z" stroke="#FF4A6C" stroke-width="1.11" stroke-linejoin="round"/>
<path d="M15.6802 3.1001H11.9802C11.784 3.1001 11.5958 3.17806 11.457 3.31684C11.3182 3.45562 11.2402 3.64384 11.2402 3.8401V7.5401C11.2402 7.73636 11.3182 7.92458 11.457 8.06336C11.5958 8.20213 11.784 8.2801 11.9802 8.2801H15.6802C15.8765 8.2801 16.0647 8.20213 16.2035 8.06336C16.3423 7.92458 16.4202 7.73636 16.4202 7.5401V3.8401C16.4202 3.64384 16.3423 3.45562 16.2035 3.31684C16.0647 3.17806 15.8765 3.1001 15.6802 3.1001V3.1001Z" stroke="#FF4A6C" stroke-width="1.11" stroke-linejoin="round"/>
<path d="M15.6802 11.2402H11.9802C11.784 11.2402 11.5958 11.3182 11.457 11.457C11.3182 11.5958 11.2402 11.784 11.2402 11.9802V15.6802C11.2402 15.8765 11.3182 16.0647 11.457 16.2035C11.5958 16.3423 11.784 16.4202 11.9802 16.4202H15.6802C15.8765 16.4202 16.0647 16.3423 16.2035 16.2035C16.3423 16.0647 16.4202 15.8765 16.4202 15.6802V11.9802C16.4202 11.784 16.3423 11.5958 16.2035 11.457C16.0647 11.3182 15.8765 11.2402 15.6802 11.2402Z" stroke="#FF4A6C" stroke-width="1.11" stroke-linejoin="round"/>
</svg>
