<svg width="47" height="47" viewBox="0 0 47 47" fill="none" xmlns="http://www.w3.org/2000/svg">
<path d="M40.0662 13.4663V5.86634C40.0662 5.19446 39.7993 4.5501 39.3242 4.075C38.8491 3.59991 38.2048 3.33301 37.5329 3.33301H8.39954C7.72766 3.33301 7.0833 3.59991 6.60821 4.075C6.13311 4.5501 5.86621 5.19446 5.86621 5.86634V13.4663C5.86621 14.1382 6.13311 14.7826 6.60821 15.2577C7.0833 15.7328 7.72766 15.9997 8.39954 15.9997H37.5329C38.2048 15.9997 38.8491 15.7328 39.3242 15.2577C39.7993 14.7826 40.0662 14.1382 40.0662 13.4663ZM8.39954 5.86634H37.5329V13.4663H8.39954V5.86634Z" fill="#FF4A6C"/>
<path d="M42.5997 8.3999H41.3331V16.3672L24.4864 21.7506C24.2195 21.8342 23.9878 22.0038 23.8274 22.2329C23.667 22.4621 23.5869 22.7378 23.5997 23.0172V24.8666H21.0664V42.5999C21.0664 43.2718 21.3333 43.9161 21.8084 44.3912C22.2835 44.8663 22.9279 45.1332 23.5997 45.1332H26.1331C26.805 45.1332 27.4493 44.8663 27.9244 44.3912C28.3995 43.9161 28.6664 43.2718 28.6664 42.5999V24.8666H26.1331V23.9419L42.9797 18.5332C43.2466 18.4496 43.4784 18.28 43.6388 18.0509C43.7992 17.8217 43.8792 17.546 43.8664 17.2666V9.66657C43.8664 9.33063 43.733 9.00845 43.4954 8.7709C43.2579 8.53335 42.9357 8.3999 42.5997 8.3999ZM26.1331 42.5999H23.5997V27.3999H26.1331V42.5999Z" fill="#FF4A6C"/>
</svg>
