<svg width="17" height="17" viewBox="0 0 17 17" fill="none" xmlns="http://www.w3.org/2000/svg">
<path d="M8.16645 8.83339C10.0458 8.83339 11.5692 7.30991 11.5692 5.43061C11.5692 3.55131 10.0458 2.02783 8.16645 2.02783C6.28715 2.02783 4.76367 3.55131 4.76367 5.43061C4.76367 7.30991 6.28715 8.83339 8.16645 8.83339Z" stroke="#12A35C" stroke-width="1.36111"/>
<path d="M11.5697 10.1943H11.8093C12.3068 10.1945 12.7872 10.3763 13.1601 10.7056C13.533 11.035 13.7729 11.4891 13.8346 11.9828L14.1007 14.1089C14.1246 14.3004 14.1075 14.4948 14.0506 14.6793C13.9936 14.8637 13.8981 15.0339 13.7704 15.1786C13.6426 15.3233 13.4855 15.4391 13.3096 15.5185C13.1336 15.5978 12.9428 15.6388 12.7498 15.6388H3.58406C3.39105 15.6388 3.20023 15.5978 3.02427 15.5185C2.84831 15.4391 2.69124 15.3233 2.56349 15.1786C2.43573 15.0339 2.3402 14.8637 2.28325 14.6793C2.2263 14.4948 2.20923 14.3004 2.23316 14.1089L2.49858 11.9828C2.5603 11.4889 2.80035 11.0345 3.17357 10.7052C3.5468 10.3758 4.0275 10.1941 4.52527 10.1943H4.76415" stroke="#12A35C" stroke-width="1.36111" stroke-linecap="round" stroke-linejoin="round"/>
<circle cx="8.16645" cy="5.20356" r="3.40278" fill="#12A35C"/>
<path d="M13.2707 10.9886L11.2291 9.62744L8.16656 10.6483L4.76378 9.62744L3.74295 10.6483L2.38184 13.0302L2.72211 15.4122H12.9304L13.9513 14.7316L13.2707 10.9886Z" fill="#12A35C"/>
</svg>
