<svg width="14" height="16" viewBox="0 0 14 16" fill="none" xmlns="http://www.w3.org/2000/svg">
<path d="M6.83344 7.83339C8.71274 7.83339 10.2362 6.30991 10.2362 4.43061C10.2362 2.55131 8.71274 1.02783 6.83344 1.02783C4.95414 1.02783 3.43066 2.55131 3.43066 4.43061C3.43066 6.30991 4.95414 7.83339 6.83344 7.83339Z" stroke="#555555" stroke-opacity="0.88" stroke-width="1.36111"/>
<path d="M10.2367 9.19434H10.4763C10.9738 9.19448 11.4542 9.37629 11.8271 9.70562C12.2 10.035 12.4399 10.4891 12.5016 10.9828L12.7677 13.1089C12.7916 13.3004 12.7745 13.4948 12.7176 13.6793C12.6606 13.8637 12.5651 14.0339 12.4374 14.1786C12.3096 14.3233 12.1525 14.4391 11.9766 14.5185C11.8006 14.5978 11.6098 14.6388 11.4168 14.6388H2.25106C2.05804 14.6388 1.86722 14.5978 1.69126 14.5185C1.51531 14.4391 1.35824 14.3233 1.23048 14.1786C1.10272 14.0339 1.0072 13.8637 0.950245 13.6793C0.893294 13.4948 0.876219 13.3004 0.900153 13.1089L1.16557 10.9828C1.22729 10.4889 1.46734 10.0345 1.84057 9.70517C2.21379 9.37581 2.69449 9.19414 3.19226 9.19434H3.43114" stroke="#555555" stroke-opacity="0.88" stroke-width="1.36111" stroke-linecap="round" stroke-linejoin="round"/>
</svg>
