<svg width="34" height="34" viewBox="0 0 34 34" fill="none" xmlns="http://www.w3.org/2000/svg">
<path d="M30.0664 7.66693H23.2531L22.2637 5.12826C22.1284 4.77745 21.8902 4.4757 21.5805 4.26253C21.2707 4.04936 20.9038 3.93471 20.5277 3.9336H13.4717C13.0941 3.93282 12.7252 4.0466 12.4135 4.25989C12.1019 4.47318 11.8623 4.77597 11.7264 5.12826L10.7464 7.66693H3.93307C3.438 7.66693 2.96321 7.8636 2.61314 8.21367C2.26307 8.56373 2.06641 9.03853 2.06641 9.5336V28.2003C2.06641 28.6953 2.26307 29.1701 2.61314 29.5202C2.96321 29.8703 3.438 30.0669 3.93307 30.0669H30.0664C30.5615 30.0669 31.0363 29.8703 31.3863 29.5202C31.7364 29.1701 31.9331 28.6953 31.9331 28.2003V9.5336C31.9331 9.03853 31.7364 8.56373 31.3863 8.21367C31.0363 7.8636 30.5615 7.66693 30.0664 7.66693ZM30.0664 28.2003H3.93307V9.5336H12.0251L13.4717 5.80026H20.5277L21.9744 9.5336H30.0664V28.2003Z" fill="#FF4A6C"/>
<path d="M8.60059 17.9337C8.60059 19.5951 9.09324 21.2191 10.0162 22.6005C10.9392 23.9819 12.2511 25.0585 13.786 25.6943C15.3209 26.3301 17.0099 26.4964 18.6393 26.1723C20.2688 25.8482 21.7655 25.0482 22.9403 23.8734C24.115 22.6986 24.9151 21.2019 25.2392 19.5725C25.5633 17.943 25.397 16.2541 24.7612 14.7192C24.1254 13.1843 23.0487 11.8724 21.6674 10.9493C20.286 10.0263 18.662 9.53369 17.0006 9.53369C14.7728 9.53369 12.6362 10.4187 11.0609 11.994C9.48558 13.5693 8.60059 15.7059 8.60059 17.9337ZM23.9073 17.9337C23.9073 19.2997 23.5022 20.635 22.7433 21.7708C21.9844 22.9066 20.9057 23.7919 19.6437 24.3146C18.3816 24.8374 16.9929 24.9741 15.6532 24.7076C14.3134 24.4412 13.0828 23.7834 12.1168 22.8174C11.1509 21.8515 10.4931 20.6209 10.2266 19.2811C9.96013 17.9414 10.0969 16.5527 10.6197 15.2906C11.1424 14.0286 12.0277 12.9499 13.1634 12.191C14.2992 11.4321 15.6346 11.027 17.0006 11.027C18.8316 11.0295 20.5869 11.758 21.8816 13.0527C23.1763 14.3474 23.9048 16.1027 23.9073 17.9337Z" fill="#FF4A6C"/>
<path d="M8.94525 12.1749C8.94525 11.9769 8.86658 11.7869 8.72655 11.6469C8.58653 11.5069 8.39661 11.4282 8.19858 11.4282H5.95858C5.76055 11.4282 5.57064 11.5069 5.43061 11.6469C5.29058 11.7869 5.21191 11.9769 5.21191 12.1749C5.21191 12.3729 5.29058 12.5628 5.43061 12.7029C5.57064 12.8429 5.76055 12.9216 5.95858 12.9216H8.19858C8.39661 12.9216 8.58653 12.8429 8.72655 12.7029C8.86658 12.5628 8.94525 12.3729 8.94525 12.1749Z" fill="#FF4A6C"/>
<path d="M11.7179 17.9337C11.7284 18.918 12.0182 19.8792 12.5535 20.7053C13.0888 21.5315 13.8477 22.1886 14.7419 22.6003L15.5352 21.3217C15.0008 21.1427 14.5138 20.845 14.1108 20.451C13.7078 20.057 13.3993 19.5768 13.2083 19.0466C13.0173 18.5163 12.9489 17.9497 13.0081 17.3892C13.0674 16.8287 13.2528 16.2889 13.5504 15.8103C13.848 15.3316 14.2501 14.9266 14.7265 14.6255C15.203 14.3245 15.7415 14.1352 16.3015 14.0719C16.8615 14.0086 17.4287 14.0729 17.9603 14.26C18.4919 14.4471 18.9743 14.7522 19.3712 15.1523L20.1739 13.8643C19.4098 13.2453 18.4856 12.8561 17.5088 12.742C16.532 12.628 15.543 12.7939 14.6568 13.2203C13.7707 13.6468 13.024 14.3162 12.5037 15.1507C11.9833 15.9852 11.7108 16.9503 11.7179 17.9337Z" fill="#FF4A6C"/>
</svg>
