<svg width="42" height="45" viewBox="0 0 42 45" fill="none" xmlns="http://www.w3.org/2000/svg">
<path d="M9.26671 23.7357C8.05841 23.4908 6.91073 23.0022 5.89155 22.299C4.87236 21.5958 4.00237 20.6922 3.33301 19.6415C2.66365 18.5909 2.20853 17.4146 1.99454 16.1823C1.78056 14.9499 1.81206 13.6865 2.08719 12.4667C2.36232 11.2469 2.87548 10.0955 3.59634 9.08064C4.3172 8.06577 5.23112 7.20801 6.28404 6.55809C7.33697 5.90816 8.50752 5.47927 9.72648 5.29678C10.9454 5.11428 12.1881 5.18189 13.3808 5.4956C14.2427 4.38437 15.3417 3.48638 16.595 2.86935C17.8483 2.25232 19.2232 1.93236 20.616 1.9336C22.049 1.93233 23.4624 2.27094 24.7437 2.92244C26.025 3.57395 27.1388 4.52036 27.9963 5.68626C29.1913 5.27454 30.4568 5.11645 31.7144 5.22178C32.9721 5.32712 34.195 5.69363 35.3074 6.29861C36.4199 6.9036 37.3981 7.73416 38.1816 8.73883C38.965 9.7435 39.537 10.9009 39.862 12.1392C40.1871 13.3776 40.2582 14.6706 40.0711 15.938C39.884 17.2054 39.4426 18.4203 38.7743 19.5074C38.106 20.5945 37.2249 21.5306 36.1858 22.2578C35.1467 22.9849 33.9716 23.4876 32.7334 23.7346V40.9336C32.7334 41.5082 32.5086 42.0593 32.1085 42.4657C31.7085 42.872 31.1658 43.1003 30.6 43.1003H11.4C10.8343 43.1003 10.2916 42.872 9.89155 42.4657C9.49148 42.0593 9.26671 41.5082 9.26671 40.9336V23.7357Z" stroke="#FF4A6C" stroke-width="2.4" stroke-linecap="round" stroke-linejoin="round"/>
</svg>
