<svg width="51" height="61" viewBox="0 0 51 61" fill="none" xmlns="http://www.w3.org/2000/svg">
<rect x="0.0332031" width="50.0278" height="50" rx="25" fill="white"/>
<path d="M29.78 25.7199C29.9207 25.5793 29.9998 25.3887 30 25.1899V24.8099C29.9977 24.6114 29.9189 24.4216 29.78 24.2799L24.64 19.1499C24.5461 19.0552 24.4183 19.002 24.285 19.002C24.1517 19.002 24.0239 19.0552 23.93 19.1499L23.22 19.8599C23.1259 19.952 23.0729 20.0782 23.0729 20.2099C23.0729 20.3415 23.1259 20.4677 23.22 20.5599L27.67 24.9999L23.22 29.4399C23.1253 29.5337 23.0721 29.6615 23.0721 29.7949C23.0721 29.9282 23.1253 30.056 23.22 30.1499L23.93 30.8499C24.0239 30.9445 24.1517 30.9978 24.285 30.9978C24.4183 30.9978 24.5461 30.9445 24.64 30.8499L29.78 25.7199Z" fill="#F67227"/>
</svg>
