<svg width="24" height="22" viewBox="0 0 24 22" fill="none" xmlns="http://www.w3.org/2000/svg">
<path fill-rule="evenodd" clip-rule="evenodd" d="M12.1871 1.27349C12.8455 0.64191 13.909 0.64191 14.5674 1.27349L23.5015 9.84308C24.1662 10.4807 24.1662 11.5189 23.5015 12.1565L14.5676 20.7261C14.2373 21.0427 13.8059 21.1998 13.3775 21.1998C12.9491 21.1998 12.5176 21.0428 12.1873 20.7261C11.5226 20.0886 11.5226 19.0502 12.1873 18.4127L18.2155 12.6302H1.68863C0.766476 12.6302 0 11.9102 0 10.9998C0 10.0892 0.766491 9.36936 1.68863 9.36936H18.2155L12.1871 3.58692C11.5224 2.94934 11.5224 1.91107 12.1871 1.27349Z" fill="#FF4A6C"/>
</svg>
