<svg width="15" height="11" viewBox="0 0 15 11" fill="none" xmlns="http://www.w3.org/2000/svg">
<path d="M10.2839 10.0608H1.85842C1.59553 10.0608 1.3434 9.95632 1.15751 9.77043C0.97162 9.58453 0.867188 9.33241 0.867188 9.06952V1.13967C0.867187 0.876778 0.97162 0.624654 1.15751 0.438762C1.3434 0.25287 1.59553 0.148438 1.85842 0.148438H10.2839C10.5468 0.148438 10.7989 0.25287 10.9848 0.438762C11.1707 0.624654 11.2751 0.876778 11.2751 1.13967V3.15187L13.9614 1.23384C14.0353 1.18117 14.1223 1.14983 14.2129 1.14326C14.3035 1.13668 14.3941 1.15511 14.4749 1.19653C14.5557 1.23796 14.6236 1.30079 14.6711 1.37816C14.7186 1.45554 14.744 1.54448 14.7444 1.63528V8.5739C14.744 8.66471 14.7186 8.75365 14.6711 8.83103C14.6236 8.9084 14.5557 8.97123 14.4749 9.01266C14.3941 9.05408 14.3035 9.07251 14.2129 9.06593C14.1223 9.05935 14.0353 9.02802 13.9614 8.97535L11.2751 7.05732V9.06952C11.2751 9.33241 11.1707 9.58453 10.9848 9.77043C10.7989 9.95632 10.5468 10.0608 10.2839 10.0608ZM1.85842 1.13967V9.06952H10.2839V6.09583C10.2843 6.00502 10.3097 5.91608 10.3572 5.8387C10.4047 5.76133 10.4726 5.6985 10.5534 5.65707C10.6342 5.61565 10.7248 5.59722 10.8154 5.6038C10.906 5.61037 10.993 5.64171 11.067 5.69438L13.7532 7.61241V2.59678L11.067 4.51481C10.993 4.56748 10.906 4.59881 10.8154 4.60539C10.7248 4.61197 10.6342 4.59354 10.5534 4.55211C10.4726 4.51069 10.4047 4.44786 10.3572 4.37049C10.3097 4.29311 10.2843 4.20417 10.2839 4.11336V1.13967H1.85842Z" fill="white"/>
</svg>
