<svg width="51" height="61" viewBox="0 0 51 61" fill="none" xmlns="http://www.w3.org/2000/svg">
<rect x="50.0283" y="50" width="50.028" height="50" rx="25" transform="rotate(180 50.0283 50)" fill="white"/>
<path d="M20.22 25.7199C20.0793 25.5793 20.0002 25.3887 20 25.1899V24.8099C20.0023 24.6114 20.0811 24.4216 20.22 24.2799L25.36 19.1499C25.4539 19.0552 25.5817 19.002 25.715 19.002C25.8483 19.002 25.9761 19.0552 26.07 19.1499L26.78 19.8599C26.8741 19.952 26.9271 20.0782 26.9271 20.2099C26.9271 20.3415 26.8741 20.4677 26.78 20.5599L22.33 24.9999L26.78 29.4399C26.8747 29.5337 26.9279 29.6615 26.9279 29.7949C26.9279 29.9282 26.8747 30.056 26.78 30.1499L26.07 30.8499C25.9761 30.9445 25.8483 30.9978 25.715 30.9978C25.5817 30.9978 25.4539 30.9445 25.36 30.8499L20.22 25.7199Z" fill="#F67227"/>
</svg>
