<svg width="17" height="17" viewBox="0 0 17 17" fill="none" xmlns="http://www.w3.org/2000/svg">
<path d="M1.21504 4.85772V15.7843H12.1416V4.85772H1.21504ZM0.608008 3.64365H12.7486C12.9096 3.64365 13.064 3.70761 13.1779 3.82145C13.2917 3.93529 13.3557 4.08969 13.3557 4.25068V16.3913C13.3557 16.5523 13.2917 16.7067 13.1779 16.8205C13.064 16.9344 12.9096 16.9983 12.7486 16.9983H0.608008C0.447013 16.9983 0.292612 16.9344 0.178772 16.8205C0.0649314 16.7067 0.000976563 16.5523 0.000976562 16.3913V4.25068C0.000976562 4.08969 0.0649314 3.93529 0.178772 3.82145C0.292612 3.70761 0.447013 3.64365 0.608008 3.64365ZM16.9979 0.608496V13.9632C16.9979 14.1242 16.9339 14.2786 16.8201 14.3924C16.7062 14.5063 16.5518 14.5702 16.3908 14.5702H14.5697V13.3562H15.7838V1.21553H6.07129V2.42959H4.85723V0.608496C4.85723 0.447501 4.92118 0.293101 5.03502 0.17926C5.14886 0.0654197 5.30326 0.00146484 5.46426 0.00146484H16.3908C16.5518 0.00146484 16.7062 0.0654197 16.8201 0.17926C16.9339 0.293101 16.9979 0.447501 16.9979 0.608496ZM3.64316 11.5351H9.71348V12.7491H3.64316V11.5351ZM3.64316 7.89287H9.71348V9.10693H3.64316V7.89287Z" fill="#FF4A6C"/>
</svg>
