<svg width="16" height="23" viewBox="0 0 16 23" fill="none" xmlns="http://www.w3.org/2000/svg">
<path d="M16 2V0H0V2H5.5C6.60371 2.00324 7.66755 2.41289 8.48839 3.15073C9.30923 3.88856 9.82956 4.90288 9.95 6H0V8H9.95C9.82956 9.09712 9.30923 10.1114 8.48839 10.8493C7.66755 11.5871 6.60371 11.9968 5.5 12H0V14.345L9.617 23L10.955 21.514L2.606 14H5.5C7.13609 13.9976 8.71119 13.3787 9.91126 12.2667C11.1113 11.1546 11.8482 9.63117 11.975 8H16V6H11.975C11.8603 4.49844 11.2255 3.08389 10.18 2H16Z" fill="#333333"/>
</svg>
