<svg width="41" height="29" viewBox="0 0 41 29" fill="none" xmlns="http://www.w3.org/2000/svg">
<path d="M39.9161 14.6201C39.7692 14.353 39.5676 14.12 39.3245 13.9363C39.0813 13.7525 38.8022 13.6221 38.5052 13.5537C36.9015 13.154 35.2353 13.0704 33.5997 13.3076C34.2231 10.2068 33.7474 7.77865 33.2716 6.3349C33.1005 5.79285 32.7331 5.33424 32.2414 5.04895C31.7498 4.76367 31.1693 4.67229 30.6138 4.79272C29.0092 5.14802 27.4848 5.79895 26.1185 6.71225C25.0867 4.40591 23.4967 2.39295 21.4919 0.855217C21.0933 0.559534 20.6101 0.399902 20.1138 0.399902C19.6174 0.399902 19.1343 0.559534 18.7356 0.855217C16.7309 2.39295 15.1408 4.40591 14.1091 6.71225C12.7428 5.79895 11.2184 5.14802 9.61377 4.79272C9.05825 4.67229 8.47777 4.76367 7.98612 5.04895C7.49447 5.33424 7.12708 5.79285 6.95596 6.3349C6.48018 7.77865 6.00439 10.2068 6.62783 13.3076C4.9922 13.0704 3.32604 13.154 1.72236 13.5537C1.42539 13.6221 1.1462 13.7525 0.903069 13.9363C0.659936 14.12 0.458327 14.353 0.311425 14.6201C0.158049 14.8826 0.0587181 15.1731 0.0192731 15.4746C-0.0201719 15.7761 0.0010659 16.0824 0.0817373 16.3755C0.655956 18.4099 2.39502 22.2654 7.66143 25.3005C12.9278 28.3357 17.6036 28.3521 20.1138 28.3521C22.6239 28.3521 27.2997 28.3521 32.5661 25.3005C37.8325 22.249 39.5716 18.4099 40.1458 16.3755C40.2265 16.0824 40.2477 15.7761 40.2083 15.4746C40.1688 15.1731 40.0695 14.8826 39.9161 14.6201ZM31.0239 6.71225C31.1041 6.69668 31.1873 6.7116 31.257 6.75408C31.3268 6.79656 31.3783 6.86354 31.4013 6.94194C31.8771 8.36928 32.32 10.9122 31.3521 14.1935C31.3333 14.2407 31.3222 14.2905 31.3192 14.3412C30.9153 15.5988 30.3762 16.809 29.7114 17.9505C28.59 19.8768 27.16 21.606 25.4786 23.0693C26.6927 20.9201 27.6606 18.0162 27.6606 14.2427C27.6705 12.3311 27.394 10.4287 26.8403 8.59897C28.0955 7.69809 29.5178 7.05666 31.0239 6.71225ZM19.9169 2.43022C19.9737 2.38762 20.0428 2.36459 20.1138 2.36459C20.1848 2.36459 20.2538 2.38762 20.3106 2.43022C21.9349 3.64428 25.6919 7.20443 25.6919 14.2427C25.6919 21.6747 21.5575 25.2021 20.1138 26.2029C18.7028 25.2021 14.5356 21.6255 14.5356 14.2427C14.5356 7.20443 18.2927 3.64428 19.9169 2.43022ZM8.82627 6.94194C8.84928 6.86354 8.90071 6.79656 8.9705 6.75408C9.04029 6.7116 9.12341 6.69668 9.20361 6.71225C10.7097 7.05666 12.132 7.69809 13.3872 8.59897C12.8335 10.4287 12.557 12.3311 12.5669 14.2427C12.5669 18.0162 13.5349 20.9201 14.7489 23.0693C13.0675 21.606 11.6376 19.8768 10.5161 17.9505C9.84765 16.8109 9.30838 15.6003 8.9083 14.3412C8.90531 14.2905 8.89423 14.2407 8.87549 14.1935C7.90752 10.9122 8.35049 8.36928 8.82627 6.94194ZM1.98486 15.8505C1.96261 15.769 1.96839 15.6823 2.00127 15.6044C2.02235 15.5678 2.05067 15.5357 2.08452 15.5104C2.11836 15.485 2.15702 15.4667 2.19814 15.4568C3.28096 15.1779 4.98721 14.9646 7.18564 15.3912C7.60475 16.6247 8.14899 17.8122 8.80986 18.9349C10.4437 21.7594 12.6785 24.1902 15.356 26.0552C12.9915 25.6465 10.7191 24.8186 8.6458 23.6107C3.97002 20.9037 2.46064 17.5896 1.98486 15.8505ZM38.2427 15.8505C37.7669 17.5896 36.2575 20.9037 31.5817 23.6107C29.5084 24.8186 27.236 25.6465 24.8716 26.0552C27.549 24.1902 29.7838 21.7594 31.4177 18.9349C32.0785 17.8122 32.6228 16.6247 33.0419 15.3912C35.2403 14.9646 36.9466 15.1779 38.0294 15.4568C38.0705 15.4667 38.1092 15.485 38.143 15.5104C38.1769 15.5357 38.2052 15.5678 38.2263 15.6044C38.2591 15.6823 38.2649 15.769 38.2427 15.8505Z" fill="#FF4A6C"/>
</svg>
