<svg width="17" height="18" viewBox="0 0 17 18" fill="none" xmlns="http://www.w3.org/2000/svg">
<path d="M8.49941 5.62676C7.85543 5.62676 7.23783 5.88258 6.78247 6.33794C6.32711 6.7933 6.07129 7.4109 6.07129 8.05488V15.5705C6.07129 16.2145 6.32711 16.8321 6.78247 17.2875C7.23783 17.7428 7.85543 17.9986 8.49941 17.9986C9.14339 17.9986 9.761 17.7428 10.2164 17.2875C10.6717 16.8321 10.9275 16.2145 10.9275 15.5705V8.05488C10.9275 7.4109 10.6717 6.7933 10.2164 6.33794C9.761 5.88258 9.14339 5.62676 8.49941 5.62676ZM9.71348 8.05488V15.5705C9.71348 15.8925 9.58557 16.2013 9.35789 16.429C9.13021 16.6567 8.8214 16.7846 8.49941 16.7846C8.17743 16.7846 7.86862 16.6567 7.64094 16.429C7.41326 16.2013 7.28535 15.8925 7.28535 15.5705V8.05488C7.28535 7.73289 7.41326 7.42409 7.64094 7.19641C7.86862 6.96873 8.17743 6.84082 8.49941 6.84082C8.8214 6.84082 9.13021 6.96873 9.35789 7.19641C9.58557 7.42409 9.71348 7.73289 9.71348 8.05488ZM2.4291 3.66113C1.78512 3.66113 1.16752 3.91695 0.712158 4.37231C0.256796 4.82768 0.000976563 5.44528 0.000976562 6.08926V15.5705C0.000976563 16.2145 0.256796 16.8321 0.712158 17.2875C1.16752 17.7428 1.78512 17.9986 2.4291 17.9986C3.07308 17.9986 3.69068 17.7428 4.14605 17.2875C4.60141 16.8321 4.85723 16.2145 4.85723 15.5705V6.08926C4.85723 5.44528 4.60141 4.82768 4.14605 4.37231C3.69068 3.91695 3.07308 3.66113 2.4291 3.66113ZM3.64316 15.5705C3.64316 15.8925 3.51525 16.2013 3.28757 16.429C3.05989 16.6567 2.75109 16.7846 2.4291 16.7846C2.10711 16.7846 1.79831 16.6567 1.57063 16.429C1.34295 16.2013 1.21504 15.8925 1.21504 15.5705V6.08926C1.21504 5.76727 1.34295 5.45847 1.57063 5.23079C1.79831 5.00311 2.10711 4.8752 2.4291 4.8752C2.75109 4.8752 3.05989 5.00311 3.28757 5.23079C3.51525 5.45847 3.64316 5.76727 3.64316 6.08926V15.5705ZM12.1416 3.19863C12.1416 2.55465 12.3974 1.93705 12.8528 1.48169C13.3081 1.02633 13.9257 0.770508 14.5697 0.770508C15.2137 0.770508 15.8313 1.02633 16.2867 1.48169C16.742 1.93705 16.9979 2.55465 16.9979 3.19863V15.5705C16.9979 16.2145 16.742 16.8321 16.2867 17.2875C15.8313 17.7428 15.2137 17.9986 14.5697 17.9986C13.9257 17.9986 13.3081 17.7428 12.8528 17.2875C12.3974 16.8321 12.1416 16.2145 12.1416 15.5705V3.19863ZM15.7838 3.19863C15.7838 2.87664 15.6559 2.56784 15.4282 2.34016C15.2005 2.11248 14.8917 1.98457 14.5697 1.98457C14.2477 1.98457 13.9389 2.11248 13.7113 2.34016C13.4836 2.56784 13.3557 2.87664 13.3557 3.19863V15.5705C13.3557 15.8925 13.4836 16.2013 13.7113 16.429C13.9389 16.6567 14.2477 16.7846 14.5697 16.7846C14.8917 16.7846 15.2005 16.6567 15.4282 16.429C15.6559 16.2013 15.7838 15.8925 15.7838 15.5705V3.19863Z" fill="#FF4A6C"/>
</svg>
