<svg width="26" height="26" viewBox="0 0 26 26" fill="none" xmlns="http://www.w3.org/2000/svg">
<path d="M13 25.5C16.3152 25.5 19.4946 24.183 21.8388 21.8388C24.183 19.4946 25.5 16.3152 25.5 13C25.5 9.68479 24.183 6.50537 21.8388 4.16117C19.4946 1.81696 16.3152 0.5 13 0.5C9.68479 0.5 6.50537 1.81696 4.16117 4.16117C1.81696 6.50537 0.5 9.68479 0.5 13C0.5 16.3152 1.81696 19.4946 4.16117 21.8388C6.50537 24.183 9.68479 25.5 13 25.5ZM13 2.0625C14.0266 2.0625 15.1984 2.98438 16.1594 5.04375C16.4984 5.77188 16.7938 6.60938 17.0328 7.53125H8.96719C9.20625 6.60938 9.50156 5.77188 9.84219 5.04375C10.8 2.98438 11.9719 2.0625 13 2.0625ZM8.425 4.38281C7.96361 5.39346 7.60604 6.44835 7.35781 7.53125H3.525C4.84413 5.25136 6.93941 3.52211 9.42813 2.65938C9.05156 3.175 8.71563 3.75938 8.425 4.38281ZM7.05 9.09375C6.84778 10.386 6.74747 11.6921 6.75 13C6.75 14.3594 6.85469 15.675 7.05156 16.9063H2.78125C2.30473 15.6591 2.06111 14.3351 2.0625 13C2.0625 11.625 2.31719 10.3063 2.78125 9.09375H7.05156H7.05ZM7.35781 18.4688C7.63281 19.6297 7.99375 20.6906 8.425 21.6172C8.71563 22.2406 9.05156 22.825 9.42813 23.3406C6.93941 22.4779 4.84413 20.7486 3.525 18.4688H7.35938H7.35781ZM8.96719 18.4688H17.0328C16.8176 19.3229 16.5247 20.1555 16.1578 20.9563C15.2 23.0156 14.0281 23.9375 13 23.9375C11.9734 23.9375 10.8016 23.0156 9.84063 20.9563C9.47487 20.1554 9.18304 19.3227 8.96875 18.4688H8.96719ZM17.3656 16.9063H8.63438C8.41725 15.6156 8.30958 14.3088 8.3125 13C8.3125 11.6203 8.42656 10.3047 8.63438 9.09375H17.3656C17.5734 10.3047 17.6875 11.6203 17.6875 13C17.6875 14.3797 17.5734 15.6953 17.3656 16.9063ZM18.6422 18.4688H22.475C21.1559 20.7486 19.0606 22.4779 16.5719 23.3406C16.9484 22.825 17.2844 22.2406 17.575 21.6172C18.0063 20.6906 18.3672 19.6297 18.6422 18.4688ZM23.2203 16.9063H18.9484C19.1453 15.675 19.25 14.3594 19.25 13C19.25 11.6406 19.1453 10.325 18.9484 9.09375H23.2188C23.6828 10.3063 23.9375 11.625 23.9375 13C23.9375 14.375 23.6828 15.6938 23.2188 16.9063H23.2203ZM16.5719 2.65938C19.0607 3.52198 21.156 5.25127 22.475 7.53125H18.6406C18.3924 6.44836 18.0348 5.39347 17.5734 4.38281C17.2952 3.77744 16.9593 3.20029 16.5703 2.65938H16.5719Z" fill="#FF4A6C"/>
</svg>
